<svg width="48" height="48" xmlns="http://www.w3.org/2000/svg">

 <g>
  <title>Layer 1</title>
  <path id="svg_1" d="m124,231.80127a12.00322,12.00322 0 0 1 -5.90466,-1.54395l-84,-47.47827a12.01881,12.01881 0 0 1 -6.09534,-10.44677l0,-94.66456a12.019,12.019 0 0 1 6.09521,-10.44672l84.00013,-47.47827a12.06282,12.06282 0 0 1 11.80932,0l84,47.47827a12.01881,12.01881 0 0 1 6.09534,10.44672l0,94.66456a12.019,12.019 0 0 1 -6.09521,10.44677l-84.00013,47.47827a12.00322,12.00322 0 0 1 -5.90466,1.54395zm0,-205.60889a4.00152,4.00152 0 0 0 -1.96814,0.51465l-84,47.47827a4.00672,4.00672 0 0 0 -2.03186,3.48242l0,94.66456a4.00658,4.00658 0 0 0 2.032,3.48242l83.99986,47.4783a4.0215,4.0215 0 0 0 3.93628,0l84,-47.47827a4.00672,4.00672 0 0 0 2.03186,-3.48245l0,-94.66456a4.00658,4.00658 0 0 0 -2.032,-3.48242l-83.99986,-47.4783a4.00152,4.00152 0 0 0 -1.96814,-0.51462z"/>
  <text xml:space="preserve" text-anchor="start" font-family="'Raleway'" font-size="140" id="svg_2" y="173" x="63" stroke-width="0" stroke="#000" fill="#000000">M</text>
 </g>
</svg>